<svg xmlns="http://www.w3.org/2000/svg" viewBox="0 0 560 210" role="img" aria-labelledby="t d">
  <title id="t">SD5thF</title><desc id="d">Light-background version of the SD5thF identity</desc>
  <defs><linearGradient id="spinGold" x1="36" y1="180" x2="245" y2="194" gradientUnits="userSpaceOnUse"><stop stop-color="#D7B451"/><stop offset=".52" stop-color="#B58A31"/><stop offset="1" stop-color="#7E5B18"/></linearGradient></defs>
  <rect width="560" height="210" rx="12" fill="#F3F0E8"/>
  <text x="87" y="144" text-anchor="middle" fill="#102A35" font-family="Arial,Helvetica,sans-serif" font-size="128" font-weight="800">S</text>
  <text x="193" y="144" text-anchor="middle" fill="#102A35" font-family="Arial,Helvetica,sans-serif" font-size="128" font-weight="800">D</text>
  <text x="299" y="144" text-anchor="middle" fill="#B8860B" font-family="Arial,Helvetica,sans-serif" font-size="128" font-weight="800">5</text>
  <text x="331" y="67" fill="#B8860B" font-family="Arial,Helvetica,sans-serif" font-size="25" font-weight="700" letter-spacing="-1">th</text>
  <text x="405" y="144" text-anchor="middle" fill="#102A35" font-family="Arial,Helvetica,sans-serif" font-size="128" font-weight="800">F</text>
  <rect x="36" y="166" width="102" height="3" rx="1.5" fill="#677176"/>
  <rect x="142" y="166" width="102" height="3" rx="1.5" fill="#3475A3"/>
  <rect x="248" y="166" width="102" height="3" rx="1.5" fill="#963F3B"/>
  <rect x="354" y="166" width="102" height="3" rx="1.5" fill="#665986"/>
  <path d="M40 194v-14m0 0-3.5 4m3.5-4 3.5 4M53 180v14m0 0-3.5-4m3.5 4 3.5-4" fill="none" stroke="url(#spinGold)" stroke-width="1.8" stroke-linecap="round" stroke-linejoin="round"/>
  <text x="68" y="194" font-family="Arial,Helvetica,sans-serif" font-size="12" font-weight="700" letter-spacing="2.35"><tspan fill="url(#spinGold)">SPIN-DEPENDENT</tspan><tspan dx="12" fill="#526970">FIFTH FORCE</tspan></text>
</svg>
